<svg width="17" height="17" viewBox="0 0 17 17" fill="none" xmlns="http://www.w3.org/2000/svg">
<path d="M11.916 1.66699H5.08268C3.19571 1.66699 1.66602 3.19669 1.66602 5.08366V11.917C1.66602 13.804 3.19571 15.3337 5.08268 15.3337H11.916C13.803 15.3337 15.3327 13.804 15.3327 11.917V5.08366C15.3327 3.19669 13.803 1.66699 11.916 1.66699Z" stroke="white" stroke-width="1.36667" stroke-linecap="round" stroke-linejoin="round"/>
<path d="M11.232 8.06971C11.3164 8.63841 11.2192 9.21922 10.9544 9.72953C10.6896 10.2398 10.2707 10.6537 9.75714 10.9121C9.2436 11.1706 8.66163 11.2606 8.09401 11.1693C7.5264 11.0779 7.00203 10.8099 6.5955 10.4034C6.18897 9.99687 5.92098 9.4725 5.82964 8.90489C5.7383 8.33727 5.82827 7.7553 6.08675 7.24176C6.34523 6.72822 6.75905 6.30926 7.26937 6.04447C7.77968 5.77968 8.36049 5.68254 8.92919 5.76687C9.50929 5.85289 10.0463 6.12321 10.461 6.53788C10.8757 6.95256 11.146 7.48961 11.232 8.06971Z" stroke="white" stroke-width="1.36667" stroke-linecap="round" stroke-linejoin="round"/>
<path d="M12.2578 4.74121H12.2643" stroke="white" stroke-width="1.36667" stroke-linecap="round" stroke-linejoin="round"/>
</svg>
