<svg width="17" height="14" viewBox="0 0 17 14" fill="none" xmlns="http://www.w3.org/2000/svg">
<path d="M16.3341 1.04007C15.6797 1.50165 14.9552 1.85468 14.1884 2.08557C13.7769 1.61237 13.23 1.27698 12.6216 1.12476C12.0132 0.972534 11.3728 1.01082 10.7869 1.23445C10.201 1.45808 9.69788 1.85625 9.34565 2.37511C8.99342 2.89398 8.80904 3.5085 8.81745 4.13557V4.81891C7.61658 4.85005 6.42665 4.58371 5.35364 4.04363C4.28062 3.50355 3.35783 2.70648 2.66745 1.72341C2.66745 1.72341 -0.0658854 7.87341 6.08411 10.6067C4.67681 11.562 3.00034 12.041 1.30078 11.9734C7.45078 15.3901 14.9674 11.9734 14.9674 4.11507C14.9668 3.92473 14.9485 3.73486 14.9128 3.54791C15.6102 2.86013 16.1023 1.99176 16.3341 1.04007V1.04007Z" stroke="white" stroke-width="1.36667" stroke-linecap="round" stroke-linejoin="round"/>
</svg>
